<svg id="圖層_1" data-name="圖層 1" xmlns="http://www.w3.org/2000/svg" width="390.9" height="113.95" viewBox="0 0 390.9 113.95">
  <defs>
    <style>
      .cls-1 {
        fill: #008aab;
      }
    </style>
  </defs>
  <g>
    <g>
      <path class="cls-1" d="M99.87,27.48,93,23.54a10,10,0,0,0-10,0L42.73,46.81a10,10,0,0,0-5,8.66v7.82A10,10,0,0,0,42.83,72l11.82,6.65V65.12a10,10,0,0,1,5-8.67L87.06,40.66a.65.65,0,0,1,1,.56V53.59a10,10,0,0,1-5,8.65L54.65,78.65v37.57a.65.65,0,0,0,1,.56l8.87-5.12a10,10,0,0,0,5-8.65V89.39L99.87,71.86a10,10,0,0,0,5-8.66V36.14A10,10,0,0,0,99.87,27.48Z" transform="translate(-4.43 -2.92)"/>
      <path class="cls-1" d="M21.17,72.93V45.82a10,10,0,0,1,5-8.65L70.42,11.62a.66.66,0,0,0,0-1.14L59.65,4.26a10,10,0,0,0-10,0L9.43,27.48a10,10,0,0,0-5,8.66V82.59a10,10,0,0,0,5,8.65L36.76,107a.65.65,0,0,0,1-.57l0-17.83a.64.64,0,0,0-.32-.56L26.17,81.58A10,10,0,0,1,21.17,72.93Z" transform="translate(-4.43 -2.92)"/>
    </g>
    <g>
      <path d="M255,107.24h16.19a.4.4,0,0,0,.39-.39l0-27.75a.35.35,0,0,1,.05-.2l32.34-56a.39.39,0,0,0-.34-.59H291.83a11.71,11.71,0,0,0-10.13,5.84L263.43,59.8a.39.39,0,0,1-.68,0L244.47,28.14a11.69,11.69,0,0,0-10.13-5.84H222.56a.39.39,0,0,0-.34.58l32.34,56a.46.46,0,0,1,.05.2v27.75A.4.4,0,0,0,255,107.24Z" transform="translate(-4.43 -2.92)"/>
      <path d="M210.33,101.39a11.7,11.7,0,0,1-10.13,5.85H181.36c-18.14,0-42.56-15.24-42.56-42.47s24-42.47,42.56-42.47H200.2a11.69,11.69,0,0,1,10.13,5.84l5.87,10.17a.39.39,0,0,1-.34.59H181.5c-11.23,0-25.73,7.53-25.73,25.75s14.5,25.76,25.73,25.76H216a.39.39,0,0,1,.34.59Z" transform="translate(-4.43 -2.92)"/>
      <path d="M363.81,22.27l-49.31,0a.39.39,0,0,0-.39.39v84.16a.4.4,0,0,0,.39.39h16.19a.39.39,0,0,0,.39-.39V39.29a.39.39,0,0,1,.39-.39h32.34c9,0,14.78,5.05,14.78,14.11s-5.8,15.06-14.78,15.06H352a11.7,11.7,0,0,0-10.13,5.85l-6.07,10.53a.39.39,0,0,0,.34.59h27.72c18.26,0,31.52-13.1,31.52-32S382.37,22.27,363.81,22.27Z" transform="translate(-4.43 -2.92)"/>
    </g>
  </g>
</svg>
